<svg width="32" height="48" viewBox="0 0 32 48" fill="none" xmlns="http://www.w3.org/2000/svg">
<path d="M30 20V24C30 27.713 28.525 31.274 25.8995 33.8995C23.274 36.525 19.713 38 16 38M16 38C12.287 38 8.72601 36.525 6.1005 33.8995C3.475 31.274 2 27.713 2 24V20M16 38V46M8 46H24M16 2C14.4087 2 12.8826 2.63214 11.7574 3.75736C10.6321 4.88258 10 6.4087 10 8V24C10 25.5913 10.6321 27.1174 11.7574 28.2426C12.8826 29.3679 14.4087 30 16 30C17.5913 30 19.1174 29.3679 20.2426 28.2426C21.3679 27.1174 22 25.5913 22 24V8C22 6.4087 21.3679 4.88258 20.2426 3.75736C19.1174 2.63214 17.5913 2 16 2Z" stroke="#F3F3F3" stroke-width="4" stroke-linecap="round" stroke-linejoin="round"/>
</svg>
